<svg width="16" height="16" viewBox="0 0 16 16" fill="none" xmlns="http://www.w3.org/2000/svg">
<g clip-path="url(#clip0_0_107)">
<path d="M8.00102 0C5.82651 0 5.55551 0.0105 4.70451 0.0465C3.85001 0.0885 3.27201 0.221 2.76201 0.419C2.22825 0.62051 1.74485 0.936008 1.34551 1.3435C0.936885 1.7419 0.621213 2.22557 0.421014 2.76C0.223014 3.27 0.0905142 3.848 0.0485142 4.7025C0.0100142 5.554 0.00201416 5.8245 0.00201416 7.999C0.00201416 10.1735 0.0125142 10.4445 0.0485142 11.2955C0.0905142 12.1475 0.223014 12.728 0.421014 13.238C0.622524 13.7718 0.938022 14.2552 1.34551 14.6545C1.74391 15.0631 2.22758 15.3788 2.76201 15.579C3.27201 15.7745 3.85251 15.9095 4.70451 15.9515C5.55601 15.99 5.82651 15.998 8.00102 15.998C10.1755 15.998 10.4465 15.9875 11.2975 15.9515C12.1495 15.9095 12.73 15.774 13.24 15.579C13.7738 15.3775 14.2572 15.062 14.6565 14.6545C15.0657 14.2565 15.3814 13.7727 15.581 13.238C15.7765 12.728 15.9115 12.1475 15.9535 11.2955C15.992 10.444 16 10.1735 16 7.999C16 5.8245 15.9895 5.5535 15.9535 4.7025C15.9115 3.8505 15.776 3.267 15.581 2.76C15.3795 2.22623 15.064 1.74283 14.6565 1.3435C14.2586 0.934345 13.7748 0.61859 13.24 0.419C12.73 0.221 12.1495 0.0885 11.2975 0.0465C10.446 0.008 10.1755 0 8.00102 0ZM8.00102 1.44C10.1365 1.44 10.3915 1.4505 11.2355 1.4865C12.014 1.523 12.438 1.653 12.7195 1.763C13.0675 1.89146 13.3825 2.09592 13.6415 2.3615C13.9066 2.61941 14.1103 2.93367 14.2375 3.281C14.3475 3.5625 14.4775 3.9865 14.514 4.765C14.55 5.609 14.5605 5.8645 14.5605 7.9995C14.5605 10.1345 14.55 10.39 14.511 11.234C14.469 12.0125 14.339 12.4365 14.2295 12.718C14.078 13.0935 13.909 13.356 13.63 13.64C13.3701 13.9039 13.0554 14.1074 12.708 14.236C12.43 14.346 12 14.476 11.2185 14.5125C10.37 14.5485 10.12 14.559 7.97902 14.559C5.83802 14.559 5.58851 14.5485 4.73901 14.5095C3.96051 14.4675 3.53101 14.3375 3.24951 14.228C2.86951 14.0765 2.60901 13.9075 2.33001 13.6285C2.04851 13.347 1.86951 13.079 1.73151 12.7065C1.61951 12.4285 1.49151 11.9985 1.45001 11.217C1.42151 10.3785 1.40801 10.1185 1.40801 7.9875C1.40801 5.8575 1.42151 5.597 1.45001 4.748C1.49151 3.9665 1.61951 3.5375 1.73151 3.2585C1.86951 2.878 2.04901 2.618 2.33001 2.3365C2.60851 2.058 2.86951 1.878 3.24951 1.737C3.53101 1.6275 3.95001 1.4975 4.73151 1.4585C5.58002 1.428 5.83001 1.417 7.96802 1.417L8.00102 1.44ZM8.00102 3.8935C7.46169 3.8933 6.92761 3.99938 6.42929 4.20569C5.93098 4.41199 5.4782 4.71446 5.09684 5.09583C4.71548 5.47719 4.413 5.92996 4.2067 6.42828C4.0004 6.92659 3.89432 7.46067 3.89451 8C3.89432 8.53933 4.0004 9.07341 4.2067 9.57172C4.413 10.07 4.71548 10.5228 5.09684 10.9042C5.4782 11.2855 5.93098 11.588 6.42929 11.7943C6.92761 12.0006 7.46169 12.1067 8.00102 12.1065C8.54034 12.1067 9.07443 12.0006 9.57274 11.7943C10.0711 11.588 10.5238 11.2855 10.9052 10.9042C11.2866 10.5228 11.589 10.07 11.7953 9.57172C12.0016 9.07341 12.1077 8.53933 12.1075 8C12.1077 7.46067 12.0016 6.92659 11.7953 6.42828C11.589 5.92996 11.2866 5.47719 10.9052 5.09583C10.5238 4.71446 10.0711 4.41199 9.57274 4.20569C9.07443 3.99938 8.54034 3.8933 8.00102 3.8935ZM8.00102 10.6665C6.52702 10.6665 5.33451 9.474 5.33451 8C5.33451 6.526 6.52702 5.3335 8.00102 5.3335C9.47502 5.3335 10.6675 6.526 10.6675 8C10.6675 9.474 9.47502 10.6665 8.00102 10.6665ZM13.233 3.7295C13.2328 3.98433 13.1313 4.22864 12.951 4.40874C12.7708 4.58884 12.5263 4.69 12.2715 4.69C12.1455 4.69 12.0207 4.66518 11.9043 4.61696C11.7879 4.56874 11.6821 4.49807 11.593 4.40897C11.5039 4.31987 11.4333 4.2141 11.3851 4.09768C11.3368 3.98127 11.312 3.8565 11.312 3.7305C11.312 3.6045 11.3368 3.47973 11.3851 3.36331C11.4333 3.2469 11.5039 3.14113 11.593 3.05203C11.6821 2.96293 11.7879 2.89226 11.9043 2.84404C12.0207 2.79582 12.1455 2.771 12.2715 2.771C12.8 2.771 13.233 3.201 13.233 3.7295Z" fill="black"/>
</g>
<defs>
<clipPath id="clip0_0_107">
<rect width="16" height="16" fill="white"/>
</clipPath>
</defs>
</svg>
