<svg width="26" height="30" viewBox="0 0 26 30" fill="none" xmlns="http://www.w3.org/2000/svg">
<g clip-path="url(#clip0_0_84)">
<path d="M13.0005 0C9.46698 0 9.0266 0.0196875 7.64373 0.0871875C6.25517 0.165937 5.31592 0.414375 4.48717 0.785625C3.61979 1.16346 2.83427 1.75501 2.18535 2.51906C1.52133 3.26606 1.00836 4.17294 0.683042 5.175C0.361292 6.13125 0.145979 7.215 0.0777292 8.81719C0.0151668 10.4137 0.00216675 10.9209 0.00216675 14.9981C0.00216675 19.0753 0.0192293 19.5834 0.0777292 21.1791C0.145979 22.7766 0.361292 23.865 0.683042 24.8212C1.0105 25.8221 1.52318 26.7284 2.18535 27.4772C2.83275 28.2434 3.61871 28.8353 4.48717 29.2106C5.31592 29.5772 6.25923 29.8303 7.64373 29.9091C9.02742 29.9813 9.46698 29.9963 13.0005 29.9963C16.5341 29.9963 16.9745 29.9766 18.3574 29.9091C19.7419 29.8303 20.6852 29.5763 21.5139 29.2106C22.3813 28.8328 23.1668 28.2412 23.8157 27.4772C24.4806 26.731 24.9937 25.8239 25.318 24.8212C25.6357 23.865 25.8551 22.7766 25.9234 21.1791C25.9859 19.5825 25.9989 19.0753 25.9989 14.9981C25.9989 10.9209 25.9819 10.4128 25.9234 8.81719C25.8551 7.21969 25.6349 6.12563 25.318 5.175C24.9906 4.17418 24.4779 3.26781 23.8157 2.51906C23.169 1.7519 22.3829 1.15986 21.5139 0.785625C20.6852 0.414375 19.7419 0.165937 18.3574 0.0871875C16.9737 0.015 16.5341 0 13.0005 0ZM13.0005 2.7C16.4707 2.7 16.8851 2.71969 18.2566 2.78719C19.5217 2.85563 20.2107 3.09938 20.6681 3.30562C21.2336 3.54649 21.7455 3.92986 22.1664 4.42781C22.5972 4.9114 22.9282 5.50064 23.1349 6.15188C23.3136 6.67969 23.5249 7.47469 23.5842 8.93437C23.6427 10.5169 23.6597 10.9959 23.6597 14.9991C23.6597 19.0022 23.6427 19.4813 23.5793 21.0638C23.511 22.5234 23.2998 23.3184 23.1219 23.8463C22.8757 24.5503 22.601 25.0425 22.1477 25.575C21.7254 26.0698 21.2138 26.4514 20.6494 26.6925C20.1977 26.8988 19.4989 27.1425 18.229 27.2109C16.8502 27.2784 16.4439 27.2981 12.9648 27.2981C9.48567 27.2981 9.08023 27.2784 7.69979 27.2053C6.43473 27.1266 5.73679 26.8828 5.27935 26.6775C4.66185 26.3934 4.23854 26.0766 3.78517 25.5534C3.32773 25.0256 3.03685 24.5231 2.8126 23.8247C2.6306 23.3034 2.4226 22.4972 2.35517 21.0319C2.30885 19.4597 2.28692 18.9722 2.28692 14.9766C2.28692 10.9828 2.30885 10.4944 2.35517 8.9025C2.4226 7.43719 2.6306 6.63281 2.8126 6.10969C3.03685 5.39625 3.32854 4.90875 3.78517 4.38094C4.23773 3.85875 4.66185 3.52125 5.27935 3.25688C5.73679 3.05156 6.41767 2.80781 7.6876 2.73469C9.06642 2.6775 9.47267 2.65688 12.9469 2.65688L13.0005 2.7ZM13.0005 7.30031C12.1241 7.29994 11.2563 7.49885 10.4465 7.88566C9.63673 8.27248 8.90098 8.83962 8.28126 9.55468C7.66155 10.2697 7.17002 11.1187 6.83478 12.053C6.49954 12.9874 6.32716 13.9888 6.32748 15C6.32716 16.0112 6.49954 17.0126 6.83478 17.947C7.17002 18.8813 7.66155 19.7303 8.28126 20.4453C8.90098 21.1604 9.63673 21.7275 10.4465 22.1143C11.2563 22.5012 12.1241 22.7001 13.0005 22.6997C13.877 22.7001 14.7448 22.5012 15.5546 22.1143C16.3643 21.7275 17.1001 21.1604 17.7198 20.4453C18.3395 19.7303 18.8311 18.8813 19.1663 17.947C19.5015 17.0126 19.6739 16.0112 19.6736 15C19.6739 13.9888 19.5015 12.9874 19.1663 12.053C18.8311 11.1187 18.3395 10.2697 17.7198 9.55468C17.1001 8.83962 16.3643 8.27248 15.5546 7.88566C14.7448 7.49885 13.877 7.29994 13.0005 7.30031ZM13.0005 19.9997C10.6053 19.9997 8.66748 17.7638 8.66748 15C8.66748 12.2362 10.6053 10.0003 13.0005 10.0003C15.3958 10.0003 17.3336 12.2362 17.3336 15C17.3336 17.7638 15.3958 19.9997 13.0005 19.9997ZM21.5025 6.99281C21.5021 7.47062 21.3373 7.92869 21.0443 8.26638C20.7514 8.60407 20.3542 8.79375 19.9401 8.79375C19.7353 8.79375 19.5326 8.74722 19.3434 8.65681C19.1543 8.56639 18.9824 8.43388 18.8376 8.26682C18.6928 8.09976 18.578 7.90143 18.4996 7.68316C18.4212 7.46489 18.3809 7.23094 18.3809 6.99469C18.3809 6.75843 18.4212 6.52449 18.4996 6.30622C18.578 6.08794 18.6928 5.88962 18.8376 5.72256C18.9824 5.5555 19.1543 5.42298 19.3434 5.33257C19.5326 5.24216 19.7353 5.19562 19.9401 5.19562C20.7989 5.19562 21.5025 6.00187 21.5025 6.99281Z" fill="black"/>
</g>
<defs>
<clipPath id="clip0_0_84">
<rect width="26" height="30" fill="white"/>
</clipPath>
</defs>
</svg>
